<svg width="339" height="55" viewBox="0 0 339 55" fill="none" xmlns="http://www.w3.org/2000/svg">
<rect width="335" height="55" transform="translate(1)" fill="white"/>
<rect x="1" y="1" width="337" height="53" fill="white" stroke="black" stroke-width="2"/>
<rect x="21" y="17" width="1.61538" height="1.61538" fill="black"/>
<rect x="21" y="18.6152" width="1.61538" height="1.61538" fill="black"/>
<rect x="21" y="20.231" width="1.61538" height="1.61538" fill="black"/>
<rect x="21" y="21.8462" width="1.61538" height="1.61538" fill="black"/>
<rect x="21" y="23.4614" width="1.61538" height="1.61538" fill="black"/>
<rect x="21" y="25.0771" width="1.61538" height="1.61538" fill="black"/>
<rect x="21" y="26.6924" width="1.61538" height="1.61538" fill="black"/>
<rect x="21" y="28.3076" width="1.61538" height="1.61538" fill="black"/>
<rect x="21" y="29.9229" width="1.61538" height="1.61538" fill="black"/>
<rect x="21" y="31.5386" width="1.61538" height="1.61538" fill="black"/>
<rect x="21" y="33.1538" width="1.61538" height="1.61538" fill="black"/>
<rect x="21" y="34.769" width="1.61538" height="1.61538" fill="black"/>
<rect x="21" y="36.3848" width="1.61538" height="1.61538" fill="black"/>
<rect x="38.7692" y="17" width="1.61538" height="1.61538" transform="rotate(90 38.7692 17)" fill="black"/>
<rect x="37.1539" y="17" width="1.61538" height="1.61538" transform="rotate(90 37.1539 17)" fill="black"/>
<rect x="35.5385" y="17" width="1.61538" height="1.61538" transform="rotate(90 35.5385 17)" fill="black"/>
<rect x="33.9231" y="17" width="1.61538" height="1.61538" transform="rotate(90 33.9231 17)" fill="black"/>
<rect x="32.3077" y="17" width="1.61538" height="1.61538" transform="rotate(90 32.3077 17)" fill="black"/>
<rect x="30.6923" y="17" width="1.61538" height="1.61538" transform="rotate(90 30.6923 17)" fill="black"/>
<rect x="29.0769" y="17" width="1.61538" height="1.61538" transform="rotate(90 29.0769 17)" fill="black"/>
<rect x="27.4615" y="17" width="1.61538" height="1.61538" transform="rotate(90 27.4615 17)" fill="black"/>
<rect x="25.8461" y="17" width="1.61538" height="1.61538" transform="rotate(90 25.8461 17)" fill="black"/>
<rect x="24.2308" y="17" width="1.61538" height="1.61538" transform="rotate(90 24.2308 17)" fill="black"/>
<rect x="40.3846" y="18.6152" width="1.61538" height="1.61538" transform="rotate(90 40.3846 18.6152)" fill="black"/>
<rect x="25.8461" y="20.231" width="1.61538" height="1.61538" transform="rotate(90 25.8461 20.231)" fill="black"/>
<rect x="25.8461" y="18.6152" width="1.61538" height="1.61538" transform="rotate(90 25.8461 18.6152)" fill="black"/>
<rect x="25.8461" y="21.8462" width="1.61538" height="1.61538" transform="rotate(90 25.8461 21.8462)" fill="black"/>
<rect x="37.1539" y="20.231" width="1.61538" height="1.61538" transform="rotate(90 37.1539 20.231)" fill="black"/>
<rect x="37.1539" y="18.6152" width="1.61538" height="1.61538" transform="rotate(90 37.1539 18.6152)" fill="black"/>
<rect x="37.1539" y="21.8462" width="1.61538" height="1.61538" transform="rotate(90 37.1539 21.8462)" fill="black"/>
<rect x="33.9231" y="20.231" width="1.61538" height="1.61538" transform="rotate(90 33.9231 20.231)" fill="black"/>
<rect x="33.9231" y="18.6152" width="1.61538" height="1.61538" transform="rotate(90 33.9231 18.6152)" fill="black"/>
<rect x="33.9231" y="21.8462" width="1.61538" height="1.61538" transform="rotate(90 33.9231 21.8462)" fill="black"/>
<rect x="37.1539" y="23.4614" width="1.61538" height="1.61538" transform="rotate(90 37.1539 23.4614)" fill="black"/>
<rect x="35.5385" y="23.4614" width="1.61538" height="1.61538" transform="rotate(90 35.5385 23.4614)" fill="black"/>
<rect x="33.9231" y="23.4614" width="1.61538" height="1.61538" transform="rotate(90 33.9231 23.4614)" fill="black"/>
<rect x="32.3077" y="23.4614" width="1.61538" height="1.61538" transform="rotate(90 32.3077 23.4614)" fill="black"/>
<rect x="30.6923" y="23.4614" width="1.61538" height="1.61538" transform="rotate(90 30.6923 23.4614)" fill="black"/>
<rect x="29.0769" y="23.4614" width="1.61538" height="1.61538" transform="rotate(90 29.0769 23.4614)" fill="black"/>
<rect x="27.4615" y="23.4614" width="1.61538" height="1.61538" transform="rotate(90 27.4615 23.4614)" fill="black"/>
<rect x="25.8461" y="23.4614" width="1.61538" height="1.61538" transform="rotate(90 25.8461 23.4614)" fill="black"/>
<rect x="38.7692" y="28.3076" width="1.61538" height="1.61538" transform="rotate(90 38.7692 28.3076)" fill="black"/>
<rect x="37.1539" y="28.3076" width="1.61538" height="1.61538" transform="rotate(90 37.1539 28.3076)" fill="black"/>
<rect x="35.5385" y="28.3076" width="1.61538" height="1.61538" transform="rotate(90 35.5385 28.3076)" fill="black"/>
<rect x="33.9231" y="28.3076" width="1.61538" height="1.61538" transform="rotate(90 33.9231 28.3076)" fill="black"/>
<rect x="32.3077" y="28.3076" width="1.61538" height="1.61538" transform="rotate(90 32.3077 28.3076)" fill="black"/>
<rect x="30.6923" y="28.3076" width="1.61538" height="1.61538" transform="rotate(90 30.6923 28.3076)" fill="black"/>
<rect x="29.0769" y="28.3076" width="1.61538" height="1.61538" transform="rotate(90 29.0769 28.3076)" fill="black"/>
<rect x="27.4615" y="28.3076" width="1.61538" height="1.61538" transform="rotate(90 27.4615 28.3076)" fill="black"/>
<rect x="25.8461" y="28.3076" width="1.61538" height="1.61538" transform="rotate(90 25.8461 28.3076)" fill="black"/>
<rect x="38.7692" y="29.9229" width="1.61538" height="1.61538" transform="rotate(90 38.7692 29.9229)" fill="black"/>
<rect x="25.8461" y="29.9229" width="1.61538" height="1.61538" transform="rotate(90 25.8461 29.9229)" fill="black"/>
<rect x="38.7692" y="31.5386" width="1.61538" height="1.61538" transform="rotate(90 38.7692 31.5386)" fill="black"/>
<rect x="25.8461" y="31.5386" width="1.61538" height="1.61538" transform="rotate(90 25.8461 31.5386)" fill="black"/>
<rect x="38.7692" y="33.1538" width="1.61538" height="1.61538" transform="rotate(90 38.7692 33.1538)" fill="black"/>
<rect x="25.8461" y="33.1538" width="1.61538" height="1.61538" transform="rotate(90 25.8461 33.1538)" fill="black"/>
<rect x="25.8461" y="34.769" width="1.61538" height="1.61538" transform="rotate(90 25.8461 34.769)" fill="black"/>
<rect x="38.7692" y="34.769" width="1.61538" height="1.61538" transform="rotate(90 38.7692 34.769)" fill="black"/>
<rect x="40.3846" y="36.3848" width="1.61538" height="1.61538" transform="rotate(90 40.3846 36.3848)" fill="black"/>
<rect x="38.7692" y="36.3848" width="1.61538" height="1.61538" transform="rotate(90 38.7692 36.3848)" fill="black"/>
<rect x="37.1539" y="36.3848" width="1.61538" height="1.61538" transform="rotate(90 37.1539 36.3848)" fill="black"/>
<rect x="35.5385" y="36.3848" width="1.61538" height="1.61538" transform="rotate(90 35.5385 36.3848)" fill="black"/>
<rect x="33.9231" y="36.3848" width="1.61538" height="1.61538" transform="rotate(90 33.9231 36.3848)" fill="black"/>
<rect x="32.3077" y="36.3848" width="1.61538" height="1.61538" transform="rotate(90 32.3077 36.3848)" fill="black"/>
<rect x="30.6923" y="36.3848" width="1.61538" height="1.61538" transform="rotate(90 30.6923 36.3848)" fill="black"/>
<rect x="29.0769" y="36.3848" width="1.61538" height="1.61538" transform="rotate(90 29.0769 36.3848)" fill="black"/>
<rect x="27.4615" y="36.3848" width="1.61538" height="1.61538" transform="rotate(90 27.4615 36.3848)" fill="black"/>
<rect x="25.8461" y="36.3848" width="1.61538" height="1.61538" transform="rotate(90 25.8461 36.3848)" fill="black"/>
<rect x="24.2308" y="36.3848" width="1.61538" height="1.61538" transform="rotate(90 24.2308 36.3848)" fill="black"/>
<rect x="42" y="38" width="1.61538" height="1.61538" transform="rotate(-180 42 38)" fill="black"/>
<rect x="42" y="36.3848" width="1.61538" height="1.61538" transform="rotate(-180 42 36.3848)" fill="black"/>
<rect x="42" y="34.769" width="1.61538" height="1.61538" transform="rotate(-180 42 34.769)" fill="black"/>
<rect x="42" y="33.1538" width="1.61538" height="1.61538" transform="rotate(-180 42 33.1538)" fill="black"/>
<rect x="42" y="31.5386" width="1.61538" height="1.61538" transform="rotate(-180 42 31.5386)" fill="black"/>
<rect x="42" y="29.9229" width="1.61538" height="1.61538" transform="rotate(-180 42 29.9229)" fill="black"/>
<rect x="42" y="28.3076" width="1.61538" height="1.61538" transform="rotate(-180 42 28.3076)" fill="black"/>
<rect x="42" y="26.6924" width="1.61538" height="1.61538" transform="rotate(-180 42 26.6924)" fill="black"/>
<rect x="42" y="25.0771" width="1.61538" height="1.61538" transform="rotate(-180 42 25.0771)" fill="black"/>
<rect x="42" y="23.4614" width="1.61538" height="1.61538" transform="rotate(-180 42 23.4614)" fill="black"/>
<rect x="42" y="21.8462" width="1.61538" height="1.61538" transform="rotate(-180 42 21.8462)" fill="black"/>
<path d="M53.5 32.75V31H51.75V29.25H50V24H51.75V22.25H53.5V20.5H60.5V22.25H62.25V24H58.75V22.25H55.25V24H53.5V29.25H55.25V31H58.75V29.25H62.25V31H60.5V32.75H53.5ZM65.75 32.75V31H64V25.75H65.75V24H74.5V25.75H76.25V31H74.5V32.75H65.75ZM67.5 31H72.75V25.75H67.5V31ZM78 32.75V31H79.75V29.25H81.5V27.5H79.75V25.75H78V24H81.5V25.75H83.25V27.5H85V25.75H86.75V24H90.25V25.75H88.5V27.5H86.75V29.25H88.5V31H90.25V32.75H86.75V31H85V29.25H83.25V31H81.5V32.75H78ZM104.25 25.75V31H102.5V32.75H95.5V34.5H92V24H95.5V25.75H97.25V27.5H95.5V31H100.75V25.75H97.25V24H102.5V25.75H104.25ZM107.75 32.75V31H106V29.25H107.75V27.5H114.75V25.75H107.75V24H116.5V25.75H118.25V32.75H107.75ZM109.5 31H114.75V29.25H109.5V31ZM120 32.75V24H123.5V27.5H128.75V24H132.25V32.75H128.75V29.25H123.5V32.75H120ZM137.5 29.25H139.25V31H137.5V32.75H134V24H137.5V29.25ZM146.25 24V32.75H142.75V27.5H141V25.75H142.75V24H146.25ZM139.25 27.5H141V29.25H139.25V27.5ZM153.25 32.75V25.75H149.75V24H160.25V25.75H156.75V32.75H153.25ZM162 32.75V24H165.5V27.5H172.5V29.25H174.25V31H172.5V32.75H162ZM165.5 31H170.75V29.25H165.5V31ZM190 32.75V24H193.5V27.5H198.75V24H202.25V32.75H198.75V29.25H193.5V32.75H190ZM205.75 32.75V31H204V29.25H205.75V27.5H212.75V25.75H205.75V24H214.5V25.75H216.25V32.75H205.75ZM207.5 31H212.75V29.25H207.5V31ZM232 32.75V24H244.25V32.75H240.75V25.75H235.5V32.75H232ZM247.75 32.75V31H246V29.25H247.75V27.5H254.75V25.75H247.75V24H256.5V25.75H258.25V32.75H247.75ZM249.5 31H254.75V29.25H249.5V31ZM265.25 25.75V27.5H263.5V32.75H260V24H263.5V25.75H265.25ZM272.25 24V32.75H268.75V27.5H267V25.75H268.75V24H272.25ZM265.25 27.5H267V31H265.25V27.5ZM274 32.75V29.25H275.75V27.5H274V25.75H275.75V24H286.25V32.75H282.75V29.25H277.5V32.75H274ZM277.5 27.5H282.75V25.75H277.5V27.5ZM293.25 32.75V25.75H289.75V24H300.25V25.75H296.75V32.75H293.25ZM302 32.75V24H305.5V27.5H312.5V29.25H314.25V31H312.5V32.75H302ZM305.5 31H310.75V29.25H305.5V31Z" fill="black"/>
</svg>
